<svg width="711" height="170" viewBox="0 0 711 170" fill="none" xmlns="http://www.w3.org/2000/svg">
<path d="M217.807 125.793C211.99 125.793 206.778 124.849 202.17 122.96C197.562 121.072 193.86 118.277 191.065 114.575C188.345 110.874 186.91 106.417 186.759 101.204H207.382C207.684 104.151 208.704 106.417 210.441 108.003C212.179 109.514 214.445 110.269 217.24 110.269C220.111 110.269 222.377 109.627 224.039 108.343C225.701 106.983 226.532 105.133 226.532 102.791C226.532 100.827 225.852 99.2026 224.492 97.9184C223.208 96.6342 221.584 95.5767 219.62 94.7457C217.731 93.9148 215.012 92.9705 211.461 91.9129C206.324 90.3265 202.132 88.7402 198.883 87.1538C195.635 85.5674 192.84 83.2257 190.498 80.1285C188.157 77.0313 186.986 72.9898 186.986 68.0041C186.986 60.6011 189.667 54.8221 195.031 50.6674C200.394 46.4371 207.382 44.3219 215.994 44.3219C224.756 44.3219 231.819 46.4371 237.183 50.6674C242.546 54.8221 245.417 60.6388 245.795 68.1174H224.832C224.681 65.549 223.737 63.5472 221.999 62.1119C220.262 60.6011 218.033 59.8456 215.314 59.8456C212.972 59.8456 211.083 60.4877 209.648 61.7719C208.213 62.9806 207.495 64.7558 207.495 67.0976C207.495 69.666 208.704 71.6678 211.121 73.1031C213.538 74.5384 217.316 76.087 222.452 77.7489C227.589 79.4864 231.744 81.1483 234.917 82.7346C238.165 84.321 240.96 86.625 243.302 89.6467C245.644 92.6683 246.814 96.5587 246.814 101.318C246.814 105.85 245.644 109.967 243.302 113.669C241.036 117.37 237.712 120.316 233.33 122.507C228.949 124.698 223.774 125.793 217.807 125.793ZM278.115 45.455V125H258.739V45.455H278.115ZM382.24 45.455V125H362.864V77.2957L345.074 125H329.437L311.533 77.1824V125H292.157V45.455H315.046L337.368 100.525L359.464 45.455H382.24ZM415.55 45.455V125H396.174V45.455H415.55ZM500.752 125H481.375L448.968 75.9359V125H429.592V45.455H448.968L481.375 94.7457V45.455H500.752V125ZM564.314 110.949H534.627L529.868 125H509.585L538.366 45.455H560.802L589.583 125H569.074L564.314 110.949ZM559.329 95.9921L549.471 66.871L539.726 95.9921H559.329ZM707.802 45.455L687.066 125H663.61L650.919 72.6499L637.775 125H614.32L594.15 45.455H614.886L626.331 103.357L640.495 45.455H661.797L675.395 103.357L686.952 45.455H707.802Z" fill="#1E293B"/>
<circle cx="80" cy="85" r="80" fill="#1F2937"/>
<path d="M143 84.5967C130.716 36.2068 82.8847 35.0901 82.8847 35.0901C82.8847 35.0901 31.1447 30.6233 17 84.5967C30.5864 148.806 126.808 153.087 143 84.5967Z" fill="white"/>
<path fill-rule="evenodd" clip-rule="evenodd" d="M80.2791 111.679C95.2862 111.679 107.452 99.597 107.452 84.6927C107.452 83.3797 107.358 82.0886 107.175 80.8258C106.058 85.7054 101.69 89.3456 96.4711 89.3456C90.4066 89.3456 85.4903 84.4293 85.4903 78.3648C85.4903 72.3003 90.4066 67.384 96.4711 67.384C98.7144 67.384 100.801 68.0567 102.539 69.2113C97.6241 62.254 89.4864 57.706 80.2791 57.706C65.272 57.706 53.1063 69.7883 53.1063 84.6927C53.1063 99.597 65.272 111.679 80.2791 111.679Z" fill="#1E293B"/>
</svg>
